inDegrees=yes
name=ik_lifting_orientations
DataType=double
version=3
OpenSimVersion=4.5-2024-01-10-34fd6af
endheader
time	pelvis_tilt	pelvis_list	pelvis_rotation	pelvis_tx	pelvis_ty	pelvis_tz	hip_flexion_r	hip_adduction_r	hip_rotation_r	knee_angle_r	knee_angle_r_beta	ankle_angle_r	subtalar_angle_r	mtp_angle_r	hip_flexion_l	hip_adduction_l	hip_rotation_l	knee_angle_l	knee_angle_l_beta	ankle_angle_l	subtalar_angle_l	mtp_angle_l	lumbar_extension	lumbar_bending	lumbar_rotation	arm_flex_r	arm_add_r	arm_rot_r	elbow_flex_r	pro_sup_r	wrist_flex_r	wrist_dev_r	arm_flex_l	arm_add_l	arm_rot_l	elbow_flex_l	pro_sup_l	wrist_flex_l	wrist_dev_l
0.02	-0.008922954358667698	-0.02153415509108694	-90.00368116423732	0	0.9399999998679526	0	44.99032510009038	-11.65891933310602	0	59.99596540673192	1.047127134260091	-5.804286472330156	0	0	44.99032510009038	-11.65891933310602	0	59.99596540673192	1.047127134260091	-5.804286472330156	0	0	-0.03898173214660149	0.01221672104962487	0.02677330387884977	-0.4653440094157941	-0.1240487428880366	-0.04095811761791054	1.006711236870404	2.5496907958567	0	0	0	-10.29457150844412	0	87.50082065074309	2.5496907958567	0	0
0.03	0.002898871500551714	0.01087173519622445	-89.99859304938505	0	0.9399999998679526	0	44.99052281991917	-11.55226321707949	0	59.99603276750114	1.047128309927301	-5.739701405142722	0	0	44.99052281991917	-11.55226321707949	0	59.99603276750114	1.047128309927301	-5.739701405142722	0	0	0.01902996746049034	0.002749418112950234	0.001740438343329274	-0.2595745688189238	-0.04988330164530943	0.05256621416865746	0.4869776270136953	2.512946008128073	0	0	0	-10.34489443310334	0	87.53683403767549	2.512946008128073	0	0
0.04	-0.0001363395007002855	0.01262496437790674	-90.03096779145054	0	0.9399999998679526	0	44.99052398070572	-11.55160064367947	0	59.99603316370839	1.047128316842421	-5.739290292927136	0	0	44.99052398070572	-11.55160064367947	0	59.99603316370839	1.047128316842421	-5.739290292927136	0	0	-0.03168958641858748	0.009522060764540222	-0.01592215137745065	-0.1973469339605163	-0.0365102233192039	0.318859245570442	0.5297596425947685	2.512731431528495	0	0	0	-10.34518756576132	0	87.53704434288555	2.512731431528495	0	0
0.05	0.005298895084156408	0.004654634518918874	-89.93127152276112	0	0.9399999998679526	0	44.9905265835058	-11.55010860695976	0	59.99603404887964	1.047128332291574	-5.738363831610912	0	0	44.9905265835058	-11.55010860695976	0	59.99603404887964	1.047128332291574	-5.738363831610912	0	0	-0.1177858913284757	0.01025333658334072	-0.1271160344436325	-0.10200494835662	-0.02346420859781086	0.544744070559313	0.5774289339104139	2.51225094870939	0	0	0	-10.34584318888242	0	87.53751526105127	2.51225094870939	0	0
0.06	0.008136408044063858	0.05935588936590991	-89.94122402724174	0	0.9399999998679526	0	44.99052753111692	-11.5495675582837	0	59.99603437202802	1.047128337931577	-5.738028178564934	0	0	44.99052753111692	-11.5495675582837	0	59.99603437202802	1.047128337931577	-5.738028178564934	0	0	-0.07468993225956189	-0.002361299911375747	-0.1068718299842882	-0.01323103230541356	-0.1123518675502174	0.682610465528909	0.6829653706986362	2.512075825527644	0	0	0	-10.34608236301375	0	87.53768689820183	2.512075825527644	0	0
0.07000000000000001	-0.008892692725436902	0.05571397493779698	-89.92775094485808	0	0.9399999998679526	0	44.99053103027744	-11.54755852733668	0	59.99603555962356	1.04712835865903	-5.736780625237309	0	0	44.99053103027744	-11.54755852733668	0	59.99603555962356	1.04712835865903	-5.736780625237309	0	0	-0.06479151017879929	0.03148552515092079	-0.1335497033158369	0.08544748436389146	-0.4665406654718174	0.7312294797494079	0.955921305702112	2.511430317587567	0	0	0	-10.34696261896884	0	87.53831955637632	2.511430317587567	0	0
0.08	0.01878570334612168	0.07732191869442005	-89.93141378850031	0	0.9399999998679526	0	44.99053244041896	-11.54675281386518	0	59.99603603982466	1.04712836704012	-5.736280846865178	0	0	44.99053244041896	-11.54675281386518	0	59.99603603982466	1.04712836704012	-5.736280846865178	0	0	-0.1111344318623586	-0.00730151823328866	-0.1275702333192325	0.2874811017786107	-0.7967590191657713	0.7625468062332988	1.221546857567788	2.511169830294485	0	0	0	-10.34731823524355	0	87.53857485835	2.511169830294485	0	0
0.09	0.01424851341289352	0.05314256500300418	-89.93297243248158	0	0.9399999998679526	0	44.99053468447272	-11.54546861658924	0	59.99603680278304	1.047128380356256	-5.735484116839975	0	0	44.99053468447272	-11.54546861658924	0	59.99603680278304	1.047128380356256	-5.735484116839975	0	0	-0.2547912582273296	0.02517343478504922	-0.1964754669586287	0.5466527821308458	-1.324601996428743	0.823227430474029	1.739070526792124	2.510755535893293	0	0	0	-10.34788354615533	0	87.53898090567662	2.510755535893293	0	0
0.1	0.005091207685974611	0.05254313167544984	-89.93037105324312	0	0.9399999998679526	0	44.99053752645581	-11.54384129447785	0	59.99603776810899	1.047128397204372	-5.734474553640784	0	0	44.99053752645581	-11.54384129447785	0	59.99603776810899	1.047128397204372	-5.734474553640784	0	0	-0.3156565959587977	0.06294681982378289	-0.3138287945075217	0.7843889548072077	-1.965735781058176	1.178881331023184	2.429521772407745	2.510231013806367	0	0	0	-10.34859906292145	0	87.53949498643873	2.510231013806367	0	0
0.11	0.002408758608478722	0.0557699564775272	-89.92843006900659	0	0.9399999998679526	0	44.99054053332161	-11.54212048200096	0	59.99603878933863	1.047128415028192	-5.733407281382718	0	0	44.99054053332161	-11.54212048200096	0	59.99603878933863	1.047128415028192	-5.733407281382718	0	0	-0.3826547026735718	0.07564471202648675	-0.3166099512845199	1.052940714837976	-2.736823955262274	1.8129020582422	3.104879236546039	2.509676045316053	0	0	0	-10.34935611413622	0	87.54003890753184	2.509676045316053	0	0
0.12	0.007549503433814624	0.0531447579376859	-89.93116979827838	0	0.9399999998679526	0	44.99054318011442	-11.54060761199312	0	59.99603968870296	1.04712843072506	-5.732469356258497	0	0	44.99054318011442	-11.54060761199312	0	59.99603968870296	1.04712843072506	-5.732469356258497	0	0	-0.440965173434431	0.07947992043960503	-0.3125756614253442	1.323097558136435	-3.54344564799411	2.583879604667352	3.612126776771391	2.509187414011191	0	0	0	-10.35002279816049	0	87.54051781199129	2.509187414011191	0	0
0.13	0.007343554554231599	0.0524302940604431	-89.93044182695476	0	0.9399999998679526	0	44.99054586780924	-11.53907228109271	0	59.99604060193735	1.047128446664007	-5.731517770569655	0	0	44.99054586780924	-11.53907228109271	0	59.99604060193735	1.047128446664007	-5.731517770569655	0	0	-0.4428884944345796	0.07985917281369956	-0.313617057162197	1.580021061737106	-4.412078890924879	3.472718873033847	4.164086325370101	2.508691206693237	0	0	0	-10.3506998333795	0	87.54100414165897	2.508691206693237	0	0
0.14	0.003460309720531619	0.057850759269345	-89.92961943338889	0	0.9399999998679526	0	44.99054878863417	-11.53740474841556	0	59.99604159431991	1.047128463984351	-5.730484539509728	0	0	44.99054878863417	-11.53740474841556	0	59.99604159431991	1.047128463984351	-5.730484539509728	0	0	-0.4985400249375055	0.07330087352907144	-0.3184798187209007	1.920478459708508	-5.358445983944748	4.206334202835087	4.578646027389546	2.508151936803781	0	0	0	-10.35143563294134	0	87.54153267668725	2.508151936803781	0	0
